<mxfile host="app.diagrams.net" modified="2025-05-09T09:49:11.597Z" agent="Mozilla/5.0 (Windows NT 10.0; Win64; x64) AppleWebKit/537.36 (KHTML, like Gecko) Chrome/135.0.0.0 Safari/537.36" etag="E7PUd_jKyxy5eXTU-m-1" version="24.3.1" type="github">
  <diagram id="C5RBs43oDa-KdzZeNtuy" name="Page-1">
    <mxGraphModel dx="1195" dy="615" grid="1" gridSize="10" guides="1" tooltips="1" connect="1" arrows="1" fold="1" page="1" pageScale="1" pageWidth="827" pageHeight="1169" math="0" shadow="0">
      <root>
        <mxCell id="WIyWlLk6GJQsqaUBKTNV-0" />
        <mxCell id="WIyWlLk6GJQsqaUBKTNV-1" parent="WIyWlLk6GJQsqaUBKTNV-0" />
        <mxCell id="AREsfPFSGKwpPjO8vymm-23" style="edgeStyle=orthogonalEdgeStyle;rounded=0;orthogonalLoop=1;jettySize=auto;html=1;exitX=1;exitY=0.5;exitDx=0;exitDy=0;entryX=0;entryY=0.5;entryDx=0;entryDy=0;" edge="1" parent="WIyWlLk6GJQsqaUBKTNV-1" source="AREsfPFSGKwpPjO8vymm-0" target="AREsfPFSGKwpPjO8vymm-2">
          <mxGeometry relative="1" as="geometry" />
        </mxCell>
        <UserObject label="pccOrderManage_2.Standard.delete.3b9283494-117c-4d90-bd62-deed2c4ef4c5" link="pccOrderManage_2.Standard.delete.3b9283494-117c-4d90-bd62-deed2c4ef4c5" id="AREsfPFSGKwpPjO8vymm-0">
          <mxCell style="ellipse;whiteSpace=wrap;html=1;aspect=fixed;" vertex="1" parent="WIyWlLk6GJQsqaUBKTNV-1">
            <mxGeometry x="250" y="190" width="80" height="80" as="geometry" />
          </mxCell>
        </UserObject>
        <mxCell id="AREsfPFSGKwpPjO8vymm-24" style="edgeStyle=orthogonalEdgeStyle;rounded=0;orthogonalLoop=1;jettySize=auto;html=1;entryX=0;entryY=0.5;entryDx=0;entryDy=0;" edge="1" parent="WIyWlLk6GJQsqaUBKTNV-1" source="AREsfPFSGKwpPjO8vymm-1" target="AREsfPFSGKwpPjO8vymm-2">
          <mxGeometry relative="1" as="geometry" />
        </mxCell>
        <UserObject label="pcgOrderManage_2.Standard.delete.3b9283494-117c-4d90-bd62-deed2c4ef4c5" link="pcgOrderManage_2.Standard.delete.3b9283494-117c-4d90-bd62-deed2c4ef4c5" id="AREsfPFSGKwpPjO8vymm-1">
          <mxCell style="ellipse;whiteSpace=wrap;html=1;aspect=fixed;" vertex="1" parent="WIyWlLk6GJQsqaUBKTNV-1">
            <mxGeometry x="230" y="570" width="80" height="80" as="geometry" />
          </mxCell>
        </UserObject>
        <mxCell id="AREsfPFSGKwpPjO8vymm-20" style="edgeStyle=orthogonalEdgeStyle;rounded=0;orthogonalLoop=1;jettySize=auto;html=1;exitX=1;exitY=0.5;exitDx=0;exitDy=0;entryX=0;entryY=0.5;entryDx=0;entryDy=0;" edge="1" parent="WIyWlLk6GJQsqaUBKTNV-1" source="AREsfPFSGKwpPjO8vymm-2" target="AREsfPFSGKwpPjO8vymm-5">
          <mxGeometry relative="1" as="geometry" />
        </mxCell>
        <mxCell id="AREsfPFSGKwpPjO8vymm-21" style="edgeStyle=orthogonalEdgeStyle;rounded=0;orthogonalLoop=1;jettySize=auto;html=1;exitX=1;exitY=0.5;exitDx=0;exitDy=0;entryX=0;entryY=0.5;entryDx=0;entryDy=0;" edge="1" parent="WIyWlLk6GJQsqaUBKTNV-1" source="AREsfPFSGKwpPjO8vymm-2" target="AREsfPFSGKwpPjO8vymm-6">
          <mxGeometry relative="1" as="geometry" />
        </mxCell>
        <mxCell id="AREsfPFSGKwpPjO8vymm-2" value="" style="rhombus;whiteSpace=wrap;html=1;" vertex="1" parent="WIyWlLk6GJQsqaUBKTNV-1">
          <mxGeometry x="600" y="380" width="80" height="80" as="geometry" />
        </mxCell>
        <mxCell id="AREsfPFSGKwpPjO8vymm-13" style="edgeStyle=orthogonalEdgeStyle;rounded=0;orthogonalLoop=1;jettySize=auto;html=1;exitX=1;exitY=0.5;exitDx=0;exitDy=0;entryX=0;entryY=0.5;entryDx=0;entryDy=0;" edge="1" parent="WIyWlLk6GJQsqaUBKTNV-1" source="AREsfPFSGKwpPjO8vymm-3" target="AREsfPFSGKwpPjO8vymm-7">
          <mxGeometry relative="1" as="geometry" />
        </mxCell>
        <mxCell id="AREsfPFSGKwpPjO8vymm-3" value="pccOrder_2.Standard.delete.3b9283494-117c-4d90-bd62-deed2c4ef4c5" style="ellipse;whiteSpace=wrap;html=1;aspect=fixed;" vertex="1" parent="WIyWlLk6GJQsqaUBKTNV-1">
          <mxGeometry x="950" y="50" width="80" height="80" as="geometry" />
        </mxCell>
        <mxCell id="AREsfPFSGKwpPjO8vymm-14" style="edgeStyle=orthogonalEdgeStyle;rounded=0;orthogonalLoop=1;jettySize=auto;html=1;exitX=1;exitY=0.5;exitDx=0;exitDy=0;" edge="1" parent="WIyWlLk6GJQsqaUBKTNV-1" source="AREsfPFSGKwpPjO8vymm-4">
          <mxGeometry relative="1" as="geometry">
            <mxPoint x="1260" y="430" as="targetPoint" />
          </mxGeometry>
        </mxCell>
        <mxCell id="AREsfPFSGKwpPjO8vymm-4" value="pcgOrder_2.Standard.delete.3b9283494-117c-4d90-bd62-deed2c4ef4c5" style="ellipse;whiteSpace=wrap;html=1;aspect=fixed;" vertex="1" parent="WIyWlLk6GJQsqaUBKTNV-1">
          <mxGeometry x="950" y="280" width="80" height="80" as="geometry" />
        </mxCell>
        <mxCell id="AREsfPFSGKwpPjO8vymm-15" style="edgeStyle=orthogonalEdgeStyle;rounded=0;orthogonalLoop=1;jettySize=auto;html=1;exitX=1;exitY=0.5;exitDx=0;exitDy=0;entryX=0;entryY=0.5;entryDx=0;entryDy=0;" edge="1" parent="WIyWlLk6GJQsqaUBKTNV-1" source="AREsfPFSGKwpPjO8vymm-5" target="AREsfPFSGKwpPjO8vymm-7">
          <mxGeometry relative="1" as="geometry" />
        </mxCell>
        <mxCell id="AREsfPFSGKwpPjO8vymm-5" value="pccOrder_1.Standard.create.3b9283494-117c-4d90-bd62-deed2c4ef4c5" style="ellipse;whiteSpace=wrap;html=1;aspect=fixed;" vertex="1" parent="WIyWlLk6GJQsqaUBKTNV-1">
          <mxGeometry x="950" y="490" width="80" height="80" as="geometry" />
        </mxCell>
        <mxCell id="AREsfPFSGKwpPjO8vymm-16" style="edgeStyle=orthogonalEdgeStyle;rounded=0;orthogonalLoop=1;jettySize=auto;html=1;exitX=1;exitY=0.5;exitDx=0;exitDy=0;" edge="1" parent="WIyWlLk6GJQsqaUBKTNV-1" source="AREsfPFSGKwpPjO8vymm-6">
          <mxGeometry relative="1" as="geometry">
            <mxPoint x="1260" y="430" as="targetPoint" />
          </mxGeometry>
        </mxCell>
        <mxCell id="AREsfPFSGKwpPjO8vymm-6" value="pcgOrder_1.Standard.create.3b9283494-117c-4d90-bd62-deed2c4ef4c5" style="ellipse;whiteSpace=wrap;html=1;aspect=fixed;" vertex="1" parent="WIyWlLk6GJQsqaUBKTNV-1">
          <mxGeometry x="950" y="680" width="80" height="80" as="geometry" />
        </mxCell>
        <mxCell id="AREsfPFSGKwpPjO8vymm-11" style="edgeStyle=orthogonalEdgeStyle;rounded=0;orthogonalLoop=1;jettySize=auto;html=1;exitX=0.5;exitY=0;exitDx=0;exitDy=0;" edge="1" parent="WIyWlLk6GJQsqaUBKTNV-1" source="AREsfPFSGKwpPjO8vymm-7" target="AREsfPFSGKwpPjO8vymm-8">
          <mxGeometry relative="1" as="geometry" />
        </mxCell>
        <mxCell id="AREsfPFSGKwpPjO8vymm-12" style="edgeStyle=orthogonalEdgeStyle;rounded=0;orthogonalLoop=1;jettySize=auto;html=1;exitX=0.5;exitY=1;exitDx=0;exitDy=0;entryX=0.5;entryY=0;entryDx=0;entryDy=0;" edge="1" parent="WIyWlLk6GJQsqaUBKTNV-1" source="AREsfPFSGKwpPjO8vymm-7" target="AREsfPFSGKwpPjO8vymm-9">
          <mxGeometry relative="1" as="geometry" />
        </mxCell>
        <mxCell id="AREsfPFSGKwpPjO8vymm-7" value="" style="rhombus;whiteSpace=wrap;html=1;" vertex="1" parent="WIyWlLk6GJQsqaUBKTNV-1">
          <mxGeometry x="1260" y="390" width="80" height="80" as="geometry" />
        </mxCell>
        <mxCell id="AREsfPFSGKwpPjO8vymm-8" value="pccOrderManage_1.Standard.create.6b9283494-117c-4d90-bd62-deed2c4ef4c5" style="ellipse;whiteSpace=wrap;html=1;aspect=fixed;" vertex="1" parent="WIyWlLk6GJQsqaUBKTNV-1">
          <mxGeometry x="1630" y="160" width="80" height="80" as="geometry" />
        </mxCell>
        <mxCell id="AREsfPFSGKwpPjO8vymm-9" value="pcgOrderManage_1.Standard.create.6b9283494-117c-4d90-bd62-deed2c4ef4c5" style="ellipse;whiteSpace=wrap;html=1;aspect=fixed;" vertex="1" parent="WIyWlLk6GJQsqaUBKTNV-1">
          <mxGeometry x="1630" y="585" width="80" height="80" as="geometry" />
        </mxCell>
        <mxCell id="AREsfPFSGKwpPjO8vymm-18" style="edgeStyle=orthogonalEdgeStyle;rounded=0;orthogonalLoop=1;jettySize=auto;html=1;entryX=0.013;entryY=0.313;entryDx=0;entryDy=0;entryPerimeter=0;" edge="1" parent="WIyWlLk6GJQsqaUBKTNV-1" source="AREsfPFSGKwpPjO8vymm-2" target="AREsfPFSGKwpPjO8vymm-3">
          <mxGeometry relative="1" as="geometry" />
        </mxCell>
        <mxCell id="AREsfPFSGKwpPjO8vymm-19" style="edgeStyle=orthogonalEdgeStyle;rounded=0;orthogonalLoop=1;jettySize=auto;html=1;exitX=1;exitY=0.5;exitDx=0;exitDy=0;entryX=-0.25;entryY=0.375;entryDx=0;entryDy=0;entryPerimeter=0;" edge="1" parent="WIyWlLk6GJQsqaUBKTNV-1" source="AREsfPFSGKwpPjO8vymm-2" target="AREsfPFSGKwpPjO8vymm-4">
          <mxGeometry relative="1" as="geometry" />
        </mxCell>
      </root>
    </mxGraphModel>
  </diagram>
</mxfile>
